<?xml version="1.0" encoding="utf-8"?>
<!-- Generator: Adobe Illustrator 16.0.0, SVG Export Plug-In . SVG Version: 6.00 Build 0)  -->
<!DOCTYPE svg PUBLIC "-//W3C//DTD SVG 1.1//EN" "http://www.w3.org/Graphics/SVG/1.1/DTD/svg11.dtd">
<svg version="1.1" id="Layer_1" xmlns="http://www.w3.org/2000/svg" xmlns:xlink="http://www.w3.org/1999/xlink" x="0px" y="0px"
	 width="371px" height="127px" viewBox="0 0 371 127" enable-background="new 0 0 371 127" xml:space="preserve">
<g>
	<g>
		<path fill="#231F20" d="M30.553,57.646c0.215,10.848,0.646,22.771,1.505,32.979c-7.305-0.43-9.883-2.256-10.313-8.162
			c-1.29-17.62-0.537-40.608,1.396-58.548c6.66,1.828,7.412,3.546,7.305,9.239c-0.108,4.727-0.108,10.743,0,17.402
			c0.859-1.074,2.148-1.934,3.974-2.469c-0.214,2.469,1.183,5.156,5.049,5.156c11.817,0,26.642-13.429,26.642-29.112
			c0-9.132-5.264-14.073-15.254-14.073c-21.056,0-42.11,17.295-42.11,24.17c0,1.182,0.752,1.934,2.578,1.934
			c1.826,0,3.974-0.752,6.338-2.256c1.289,4.834-3.545,8.594-9.453,8.594c-4.404,0-7.305-3.008-7.305-7.09
			c0-12.248,26.533-34.592,52.853-34.592c15.039,0,23.525,8.165,23.525,21.271c0,19.551-20.302,38.672-38.028,38.672
			C35.388,60.761,32.272,59.58,30.553,57.646z"/>
		<path fill="#231F20" d="M102.517,71.504c3.008,0,6.338-4.834,12.354-24.062c1.613,0.43,1.936,1.827,1.505,3.652
			c-5.479,23.203-11.174,32.01-16.329,32.01c-4.619,0-7.733-4.186-7.733-16.326c0-0.752,0-1.182-0.431-1.289
			c-3.007,14.611-8.164,20.52-12.783,20.52c-4.404,0-8.057-4.729-8.057-15.041c0-18.476,11.172-34.912,19.98-34.912
			c4.835,0,7.197,3.329,7.197,7.949c0,3.222-1.289,6.768-3.223,8.808c-0.43,0.431-0.967,0.86-1.504,1.181
			c3.438,1.075,4.619,2.687,4.834,6.339C98.757,68.82,100.156,71.504,102.517,71.504z M89.197,41.962
			c-3.545,0-9.453,11.603-9.453,23.419c0,6.018,1.719,8.809,3.652,8.809c2.148,0,5.586-6.66,8.057-19.551
			c-1.182,0.215-2.363,0.107-3.545-0.429C91.667,48.623,91.882,41.962,89.197,41.962z"/>
		<path fill="#231F20" d="M119.593,61.514c0,11.494,4.08,16.113,8.27,16.113c6.553,0,15.254-10.205,21.484-30.186
			c1.611,0.43,1.934,1.827,1.504,3.652c-5.693,23.633-16.328,37.168-25.568,37.168c-8.162,0-14.715-7.412-14.715-22.023
			c0-17.508,9.452-30.292,18.26-30.292c4.836,0,7.629,3.761,7.629,8.917c0,3.223-1.074,7.089-2.9,9.237
			c-1.609,1.827-3.652,2.579-6.768,1.827c3.008-4.834,3.223-13.966,0.321-13.966C123.996,41.962,119.593,50.986,119.593,61.514z"/>
		<path fill="#231F20" d="M161.587,28.75c0,7.627-3.006,10.634-6.768,10.634c-4.08,0-8.809-3.974-8.809-8.915
			c0-4.726,1.936-10.099,4.621-13.965C158.472,17.577,161.587,21.875,161.587,28.75z M173.728,51.094
			c-6.338,26.102-12.463,34.27-17.832,34.27c-5.371,0-8.486-5.051-8.486-16.652c0.107-6.983,1.072-16.758,2.146-23.312
			c4.941,1.611,6.447,3.116,6.34,6.768c-0.432,15.362,0.75,21.59,3.438,21.59c2.578,0,6.66-6.229,12.891-26.316
			C173.833,47.871,174.158,49.268,173.728,51.094z"/>
		<path fill="#231F20" d="M178.88,72.043c8.059-3.439,15.256-12.786,18.906-24.602c1.613,0.43,1.936,1.827,1.506,3.652
			c-2.471,11.064-11.279,21.807-20.197,25.459c9.24,6.123,15.578,19.553,15.578,30.938c0,10.957-4.941,18.691-10.85,18.691
			c-6.34,0-13.752-8.701-13.752-46.836v-0.428c-1.18-1.291-1.719-3.33-1.396-5.59c0.43,0,0.967,0,1.504,0.111
			c0.537-22.883,4.619-48.88,9.992-65.101c5.262,1.29,8.377,4.296,8.377,8.272c0,5.693-1.932,12.891-7.52,28.574
			C179.955,53.457,179.095,63.663,178.88,72.043z M178.775,82.246c0.428,14.182,2.791,26.213,4.941,30.293
			c2.039,3.762,4.188,2.471,4.188-3.328C187.904,100.078,185.218,89.66,178.775,82.246z"/>
		<path fill="#231F20" d="M210.244,27.138c0,7.413-2.793,10.636-6.875,10.636c-4.725,0-9.129-3.761-9.129-10.744
			c0-4.082,1.285-8.486,3.867-11.817C206.593,16.073,210.244,19.941,210.244,27.138z M222.169,51.094
			c-6.984,28.896-12.893,35.986-17.834,35.986c-5.049,0-8.486-6.016-8.486-18.799c0-8.056,1.074-17.509,2.258-24.493
			c4.832,1.29,6.445,3.116,6.336,6.768c-0.535,19.122,0.645,24.922,3.332,24.922c2.58,0,6.66-7.949,12.893-28.037
			C222.275,47.871,222.595,49.268,222.169,51.094z"/>
		<path fill="#231F20" d="M225.386,61.514c0,11.494,4.08,16.113,8.271,16.113c6.555,0,15.256-10.205,21.484-30.186
			c1.609,0.43,1.936,1.827,1.508,3.652c-5.697,23.633-16.332,37.168-25.57,37.168c-8.164,0-14.715-7.412-14.715-22.023
			c0-17.508,9.451-30.292,18.264-30.292c4.832,0,7.625,3.761,7.625,8.917c0,3.223-1.078,7.089-2.9,9.237
			c-1.613,1.827-3.654,2.579-6.77,1.827c3.008-4.834,3.223-13.966,0.322-13.966C229.791,41.962,225.386,50.986,225.386,61.514z"/>
		<path fill="#231F20" d="M280.382,71.504c3.008,0,6.34-4.834,12.352-24.062c1.613,0.43,1.939,1.827,1.506,3.652
			c-5.477,23.203-11.172,32.01-16.326,32.01c-4.623,0-7.736-4.186-7.736-16.326c0-0.752,0-1.182-0.432-1.289
			c-3.006,14.611-8.164,20.52-12.783,20.52c-4.402,0-8.055-4.729-8.055-15.041c0-18.476,11.172-34.912,19.979-34.912
			c4.836,0,7.201,3.329,7.201,7.949c0,3.222-1.291,6.768-3.223,8.808c-0.432,0.431-0.969,0.86-1.506,1.181
			c3.438,1.075,4.617,2.687,4.834,6.339C276.623,68.82,278.019,71.504,280.382,71.504z M267.062,41.962
			c-3.541,0-9.453,11.603-9.453,23.419c0,6.018,1.719,8.809,3.65,8.809c2.15,0,5.586-6.66,8.061-19.551
			c-1.184,0.215-2.363,0.107-3.545-0.429C269.533,48.623,269.746,41.962,267.062,41.962z"/>
		<path fill="#231F20" d="M311.958,65.918c0-6.124,0.857-14.61,0.857-15.791c0-0.538-0.105-0.752-0.428-0.859
			c-4.08,9.882-7.303,26.21-11.064,34.484c-7.521-1.184-10.1-4.729-10.1-10.744c0-7.197,0.752-17.939,1.613-28.251
			c1.824,0.429,4.084,1.181,5.48,2.148c1.826,1.29,2.576,2.792,2.576,7.197c0,6.231-0.322,11.495,0.111,16.543
			c0.102,1.184,0.318,1.398,0.641,1.398c2.795-7.416,7.197-25.354,11.17-33.088c7.09,1.826,8.916,4.082,8.703,8.701
			c-0.535,15.791-0.107,27.932,3.975,27.932c3.225,0,6.664-4.943,13.855-28.146c1.613,0.43,1.936,1.827,1.508,3.652
			C334.3,78.592,328.609,87.08,322.271,87.08C316.361,87.08,311.958,81.711,311.958,65.918z"/>
		<path fill="#231F20" d="M348.046,35.732c1.613-1.074,3.867-1.181,4.836,0.107c-5.266,3.76-9.564,15.147-9.564,26.748
			c0,10.852,3.008,14.932,6.877,14.932c3.438,0,6.768-3.865,7.734-12.246c-5.371-1.934-9.025-8.378-9.025-16.972
			c0-5.157,1.719-7.413,3.76-7.413c4.082,0,8.381,7.089,8.811,20.303c2.9,0.322,5.908-0.752,7.625-3.223
			c1.289,0.752,1.289,2.578,0.217,4.083c-1.719,2.472-4.727,3.866-7.842,3.866c-0.539,15.361-6.662,23.42-13.105,23.42
			c-7.412,0-13.322-7.844-13.322-21.809C335.046,52.275,341.492,40.136,348.046,35.732z"/>
	</g>
</g>
</svg>
